/* XPM */
static char * bitblinder_xpm[] = {
"32 32 3 1",
" 	c None",
".	c #14B6FF",
"+	c #404040",
"                                ",
"                                ",
"                                ",
"                                ",
"                                ",
"                                ",
"                                ",
"...     ......++++    ++++++++++",
"...     ......++++    ++++++++++",
"...     ......++++    ++++++++++",
"...           ++++           +++",
"...           ++++           +++",
"...           ++++           +++",
"...   +++++   ++++   .....   +++",
"...   +++++   ++++   .....   +++",
"...   +++++   ++++   .....   +++",
"...   +++++   ++++   .....   +++",
"...   +++++   ++++   .....   +++",
"...           ++++           +++",
"...           ++++           +++",
"...           ++++           +++",
"...           ++++           +++",
"..............++++++++++++++++++",
"..............++++++++++++++++++",
"..............++++++++++++++++++",
"                                ",
"                                ",
"                                ",
"                                ",
"                                ",
"                                ",
"                                "};
